<?xml version="1.0" encoding="utf-8"?>
<!-- Generator: Adobe Illustrator 24.1.0, SVG Export Plug-In . SVG Version: 6.00 Build 0)  -->
<svg version="1.1" id="Layer_1" xmlns="http://www.w3.org/2000/svg" xmlns:xlink="http://www.w3.org/1999/xlink" x="0px" y="0px"
	 viewBox="0 0 1007.1 1019.8" style="enable-background:new 0 0 1007.1 1019.8;" xml:space="preserve">
<style type="text/css">
	.st0{fill:#F3B444;}
	.st1{font-family:'ProximaSoft-Bold';}
	.st2{font-size:166.9329px;}
	.st3{font-size:166.2362px;}
	.st4{font-size:166.1115px;}
	.st5{font-size:165.5116px;}
	.st6{font-size:165.9368px;}
	.st7{font-size:165.7785px;}
	.st8{font-size:166.6347px;}
	.st9{fill:#CB0202;}
	.st10{font-size:166.2279px;}
	.st11{font-size:165.5784px;}
</style>
<text transform="matrix(-0.2589 0.9659 -0.9659 -0.2589 76.895 267.2738)" class="st0 st1 st2">T</text>
<text transform="matrix(9.999500e-03 0.9999 -0.9999 9.999500e-03 46.0754 390.2098)" class="st0 st1 st3">O</text>
<text transform="matrix(0.3102 0.9507 -0.9507 0.3102 53.4898 552.8103)" class="st0 st1 st4">G</text>
<text transform="matrix(0.5524 0.8336 -0.8336 0.5524 106.7188 696.4815)" class="st0 st1 st5">E</text>
<text transform="matrix(0.7413 0.6712 -0.6712 0.7413 181.5453 801.7391)" class="st0 st1 st6">T</text>
<text transform="matrix(0.9024 0.4512 -0.4512 0.8924 280.2883 887.4387)" class="st0 st1 st7">H</text>
<text transform="matrix(0.9817 0.1903 -0.1903 0.9817 421.8965 950.8217)" class="st0 st1 st6">E</text>
<text transform="matrix(0.9976 -6.982914e-02 6.982914e-02 0.9976 550.11 971.5339)" class="st0 st1 st8">R</text>
<text transform="matrix(0.961 0.2765 -0.2765 0.961 592.3826 155.6829)" class="st9 st1 st10">A</text>
<text transform="matrix(0.7744 0.6327 -0.6327 0.7744 709.4106 192.4837)" class="st9 st1 st10">P</text>
<text transform="matrix(0.4962 0.8682 -0.8682 0.4962 789.6606 256.7062)" class="st9 st1 st10">A</text>
<text transform="matrix(0.1104 0.9939 -0.9939 0.1104 848.0099 364.2692)" class="st9 st1 st11">R</text>
<text transform="matrix(-0.2686 0.9633 -0.9633 -0.2686 858.0579 479.7306)" class="st9 st1 st10">T</text>
</svg>
